<svg xmlns="http://www.w3.org/2000/svg" viewBox="0 0 64 64">
  <rect width="64" height="64" fill="#FF6B6B" rx="12"/>
  <path d="M16 24 C16 20, 20 16, 32 16 C44 16, 48 20, 48 24 L48 28 C48 32, 44 36, 32 36 C20 36, 16 32, 16 28 Z" fill="#FFE5E5" opacity="0.9"/>
  <path d="M16 32 C16 28, 20 24, 32 24 C44 24, 48 28, 48 32 L48 36 C48 40, 44 44, 32 44 C20 44, 16 40, 16 36 Z" fill="#FFF" opacity="0.95"/>
  <ellipse cx="32" cy="40" rx="18" ry="6" fill="#FFB8B8" opacity="0.7"/>
  <path d="M20 28 Q32 26, 44 28" stroke="#FF9999" stroke-width="1.5" fill="none"/>
  <path d="M20 36 Q32 34, 44 36" stroke="#FFB8B8" stroke-width="1.5" fill="none"/>
</svg>